<!-- Generated by IcoMoon.io -->
<svg version="1.1" xmlns="http://www.w3.org/2000/svg" width="64" height="64" viewBox="0 0 64 64">
<title>next-dot-js</title>
<path d="M47.501 60.005c-0.237 0.125-0.224 0.176 0.013 0.056 0.072-0.032 0.134-0.074 0.187-0.125l-0 0c0-0.043-0.005-0.037-0.2 0.069zM47.976 59.755c-0.112 0.088-0.112 0.093 0.024 0.024 0.075-0.037 0.139-0.080 0.139-0.093 0-0.051-0.032-0.037-0.163 0.069zM48.288 59.565c-0.112 0.088-0.112 0.093 0.024 0.024 0.075-0.037 0.139-0.080 0.139-0.093 0-0.051-0.032-0.037-0.163 0.069zM48.6 59.379c-0.112 0.088-0.112 0.093 0.024 0.024 0.075-0.037 0.139-0.080 0.139-0.093 0-0.051-0.032-0.037-0.163 0.069zM49.032 59.099c-0.219 0.139-0.288 0.232-0.093 0.125 0.139-0.080 0.363-0.251 0.325-0.256-0.089 0.038-0.165 0.082-0.236 0.133l0.004-0.002zM29.904 0.016c-0.139 0.013-0.576 0.056-0.971 0.088-9.088 0.819-17.603 5.723-22.995 13.261-2.861 3.931-4.861 8.668-5.627 13.808l-0.021 0.173c-0.256 1.757-0.288 2.277-0.288 4.661s0.032 2.901 0.288 4.661c1.739 12.016 10.291 22.112 21.888 25.853 2.077 0.669 4.267 1.125 6.755 1.4 0.971 0.107 5.16 0.107 6.131 0 4.296-0.475 7.939-1.539 11.528-3.371 0.549-0.283 0.656-0.357 0.581-0.419-0.625-0.758-2.335-3.032-4.029-5.318l-1.181-1.668-5.117-6.912-6.411-9.488c-4.090-6.201-6.215-9.29-8.36-12.366l1.904 2.883c-0.024-0.005-0.051 4.211-0.061 9.357-0.019 9.013-0.024 9.376-0.139 9.589-0.111 0.251-0.303 0.449-0.543 0.565l-0.007 0.003c-0.2 0.101-0.376 0.12-1.32 0.12h-1.083l-0.288-0.181c-0.178-0.113-0.32-0.267-0.416-0.45l-0.003-0.006-0.131-0.283 0.013-12.541 0.019-12.547 0.195-0.243c0.13-0.152 0.283-0.279 0.456-0.377l0.008-0.004c0.256-0.125 0.357-0.139 1.44-0.139 1.277 0 1.488 0.051 1.821 0.413-0.221-0.571 2.323 3.218 4.847 7.023l2.873 4.607c4.155 6.299 9.832 14.899 12.624 19.123l5.067 7.675 0.256-0.168c2.498-1.675 4.657-3.579 6.541-5.73l0.033-0.038c3.893-4.438 6.584-10.021 7.509-16.182l0.022-0.175c0.256-1.757 0.288-2.277 0.288-4.661s-0.032-2.901-0.288-4.661c-1.739-12.016-10.291-22.112-21.888-25.853-1.925-0.638-4.183-1.13-6.513-1.382l-0.148-0.013c-0.6-0.061-4.736-0.131-5.259-0.088zM43.003 19.371c0.3 0.153 0.526 0.414 0.63 0.73l0.002 0.009c0.051 0.163 0.061 3.64 0.051 11.477l-0.019 11.248-1.984-3.040-1.989-3.040v-8.176c0-5.285 0.024-8.256 0.061-8.4 0.095-0.342 0.318-0.62 0.612-0.786l0.006-0.003c0.256-0.131 0.349-0.144 1.333-0.144 0.925 0 1.088 0.013 1.296 0.125z"></path>
</svg>
