<!-- Generated by IcoMoon.io -->
<svg version="1.1" xmlns="http://www.w3.org/2000/svg" width="64" height="64" viewBox="0 0 64 64">
<title>sass</title>
<path fill="#c69" d="M32 0c17.672 0 32 14.328 32 32s-14.328 32-32 32-32-14.328-32-32 14.328-32 32-32zM25.64 42.661c0.467 1.72 0.416 3.328-0.064 4.779l-0.173 0.48c-0.064 0.163-0.139 0.32-0.208 0.469-0.373 0.773-0.869 1.493-1.48 2.16-1.861 2.024-4.459 2.792-5.573 2.147-1.2-0.699-0.603-3.56 1.557-5.84 2.323-2.448 5.653-4.024 5.653-4.024v-0.008zM52.069 13.699c-1.445-5.688-10.872-7.557-19.792-4.387-5.304 1.885-11.051 4.848-15.181 8.712-4.915 4.589-5.696 8.589-5.373 10.261 1.139 5.896 9.219 9.752 12.541 12.613v0.016c-0.979 0.48-8.149 4.077-9.829 7.8-1.8 3.92 0.28 6.723 1.64 7.080 4.2 1.163 8.52-0.96 10.84-4.397 2.24-3.363 2.043-7.683 1.077-9.803 1.323-0.36 2.88-0.52 4.88-0.277 5.603 0.64 6.723 4.16 6.48 5.6-0.24 1.437-1.395 2.277-1.797 2.517-0.4 0.243-0.52 0.32-0.483 0.483 0.040 0.24 0.243 0.24 0.56 0.2 0.44-0.080 2.923-1.2 3.043-3.923 0.12-3.44-3.163-7.277-9-7.2-2.4 0.043-3.923 0.243-5 0.683-0.080-0.12-0.163-0.2-0.28-0.28-3.6-3.88-10.28-6.6-10-11.76 0.080-1.88 0.76-6.837 12.8-12.837 9.88-4.923 17.763-3.56 19.123-0.56 1.955 4.277-4.203 12.24-14.483 13.397-3.92 0.44-5.96-1.077-6.483-1.64-0.557-0.6-0.637-0.64-0.837-0.517-0.32 0.16-0.12 0.68 0 1 0.32 0.8 1.56 2.2 3.723 2.92 1.877 0.6 6.48 0.957 12-1.2 6.197-2.397 11.037-9.080 9.637-14.68z"></path>
</svg>
