<!-- Generated by IcoMoon.io -->
<svg version="1.1" xmlns="http://www.w3.org/2000/svg" width="64" height="64" viewBox="0 0 64 64">
<title>styled-components</title>
<path fill="#db7093" d="M43.237 18.032l-0.2 1.043c-0.309 1.976-0.197 2.541 0.651 3.275l0.819 0.677-0.848 3.781c-0.507 2.256-1.128 4.147-1.523 4.768-0.339 0.536-0.733 1.325-0.819 1.749-0.141 0.507-0.621 1.016-1.355 1.467-0.648 0.368-1.92 1.355-2.821 2.147-0.72 0.648-1.216 1.045-1.485 1.216l-0.88 0.696c-0.283 0.453-0.443 0.819-0.504 1.096-0.061 0.285-0.027 0.475 0.064 0.613 0.088 0.133 0.24 0.227 0.448 0.285 0.174 0.043 0.375 0.067 0.581 0.067 0.060 0 0.12-0.002 0.179-0.006l-0.008 0c0.618-0.043 1.192-0.149 1.742-0.313l-0.057 0.014c0.187-0.051 0.333-0.099 0.461-0.141 0.197-0.243 0.653-0.701 1.461-1.499 2.144-2.115 2.963-3.272 2.117-2.96-0.312 0.112-0.171-0.171 0.365-0.736 1.131-1.101 1.779-2.765 3.133-7.984 1.072-4.12 1.072-4.179 1.861-4.179 0.371 0 1.419 0.064 1.419 0.064v-5.141h-2.405zM53.475 26.472c-0.171 0-0.453 0.256-0.621 0.539-0.309 0.507 0.056 0.816 4.712 3.723 2.765 1.752 4.995 3.245 4.939 3.36-0.056 0.083-2.315 1.552-5.021 3.245-4.912 3.045-4.939 3.075-4.488 3.696 0.565 0.733 0 0.987 6.376-2.992l4.629-2.963v-2.229l-5.165-3.189c-2.792-1.749-5.219-3.16-5.36-3.189zM10.581 26.784c-0.141 0-2.568 1.44-5.36 3.16l-5.221 3.189v2.229l5.192 3.245c2.88 1.776 5.307 3.245 5.419 3.245s0.339-0.256 0.565-0.565c0.339-0.536 0.053-0.763-4.715-3.781-4.541-2.851-5.021-3.245-4.568-3.555 0.283-0.197 2.427-1.525 4.741-2.963 5.277-3.245 4.995-3.021 4.571-3.699-0.168-0.28-0.453-0.533-0.624-0.507zM33.739 26.845c-0.779-0.005-2.453 1.181-7.467 5.275-0.216 0.515-0.235 0.869-0.136 1.099 0.064 0.157 0.181 0.267 0.344 0.347 0.16 0.080 0.368 0.128 0.597 0.147 0.456 0.040 0.995-0.032 1.429-0.117l0.293-0.067c0.1-0.133 0.229-0.24 0.378-0.312l0.006-0.003c0.309-0.171 1.608-1.355 2.907-2.624 2.285-2.315 2.821-3.36 1.891-3.699-0.070-0.029-0.151-0.045-0.237-0.045-0.002 0-0.004 0-0.006 0h0zM39.595 28.453c-0.685 0.019-1.92 0.813-4.035 2.501-1.061 0.861-1.733 1.325-2.093 1.421l-1.397 1.104c-0.525 0.96-0.603 1.555-0.464 1.883 0.071 0.164 0.202 0.291 0.363 0.356l0.005 0.002c0.187 0.076 0.404 0.12 0.631 0.12 0.003 0 0.007 0 0.010 0h-0.001c0.553-0.006 1.085-0.088 1.588-0.237l-0.041 0.010c0.328-0.088 0.587-0.172 0.84-0.266l-0.064 0.021 0.077-0.032 0.141-0.075c0.267-0.344 0.88-0.992 1.648-1.739 2.427-2.341 3.667-4.005 3.413-4.627-0.115-0.301-0.312-0.453-0.621-0.443zM33.131 31.333c-0.197 0.021-0.64 0.363-1.437 1.061-1.152 1.019-2.408 1.605-2.843 1.344-0.031 0.010-0.133 0.032-0.236 0.053l-0.068 0.011c-0.443 0.088-0.995 0.16-1.488 0.12-0.247-0.015-0.475-0.076-0.684-0.173l0.012 0.005c-0.2-0.093-0.357-0.252-0.446-0.448l-0.002-0.006c-0.099-0.24-0.099-0.539 0.013-0.92l-1.733 1.424-3.923 3.245v5.261l12.853-10.125c-0-0.007-0-0.016-0-0.025 0-0.108 0.016-0.212 0.045-0.311l-0.002 0.008c0.099-0.357 0.093-0.539-0.061-0.525zM38.661 33.037c-0.195 0-0.52 0.275-1.040 0.827-0.707 0.755-1.819 1.485-2.408 1.635l-0.091 0.048c-0.057 0.026-0.154 0.064-0.253 0.099l-0.041 0.013c-0.16 0.053-0.368 0.117-0.608 0.181-0.48 0.131-1.077 0.251-1.611 0.237-0.264-0-0.516-0.053-0.746-0.149l0.013 0.005c-0.221-0.093-0.394-0.262-0.488-0.474l-0.002-0.006c-0.155-0.371-0.093-0.891 0.245-1.629l-11.339 8.931v3.213h4.981l10.565-8.299c0.275-0.304 0.688-0.72 1.245-1.24 1.493-1.384 1.832-1.861 1.832-2.568 0-0.549-0.061-0.827-0.256-0.824zM41.176 38.237l-0.904 0.901c-0.507 0.48-1.411 1.072-2.029 1.325l-0.123 0.053-0.008 0.013-0.027 0.027c-0.024 0.019-0.035 0.021-0.053 0.029-0.183 0.074-0.433 0.158-0.687 0.232l-0.065 0.016c-0.508 0.154-1.099 0.263-1.708 0.305l-0.025 0.001c-0.053 0.004-0.114 0.006-0.177 0.006-0.231 0-0.455-0.028-0.669-0.082l0.019 0.004c-0.241-0.054-0.443-0.192-0.579-0.381l-0.002-0.003c-0.128-0.197-0.165-0.461-0.093-0.787 0.064-0.253 0.15-0.475 0.261-0.683l-0.008 0.016-8.525 6.736h11.339l1.355-1.552c1.861-2.171 2.709-3.723 2.709-5.051z"></path>
</svg>
