<!-- Generated by IcoMoon.io -->
<svg version="1.1" xmlns="http://www.w3.org/2000/svg" width="64" height="64" viewBox="0 0 64 64">
<title>ubuntu</title>
<path fill="#e95420" d="M32 0c17.661 0 32 14.339 32 32s-14.339 32-32 32-32-14.339-32-32 14.339-32 32-32zM40.744 47.147c-2.043 1.176-2.744 3.792-1.563 5.837 1.176 2.040 3.792 2.741 5.835 1.557 2.043-1.176 2.744-3.792 1.56-5.837-1.176-2.040-3.789-2.741-5.832-1.557zM32 44.48c-1.88 0-3.661-0.419-5.256-1.16l-2.968 5.32c2.48 1.224 5.275 1.923 8.224 1.923 1.723 0 3.381-0.243 4.96-0.683 0.277-1.715 1.293-3.291 2.92-4.232 1.624-0.936 3.501-1.029 5.12-0.416 3.163-3.101 5.219-7.331 5.52-12.040l-6.093-0.088c-0.56 6.376-5.907 11.376-12.427 11.376zM19.52 32c0-4.221 2.099-7.949 5.307-10.213l-3.12-5.229c-3.744 2.48-6.52 6.317-7.683 10.76 1.349 1.077 2.213 2.757 2.213 4.64 0 1.877-0.864 3.517-2.213 4.637 1.163 4.44 3.939 8.277 7.683 10.757l3.12-5.24c-3.208-2.192-5.307-5.915-5.307-10.112zM10.24 27.728c-2.36 0-4.272 1.912-4.272 4.272s1.912 4.272 4.272 4.272 4.269-1.912 4.269-4.272-1.909-4.272-4.269-4.272zM32 19.52c6.52 0 11.867 5 12.427 11.373l6.093-0.091c-0.301-4.707-2.36-8.933-5.52-12.043-1.624 0.619-3.501 0.517-5.12-0.411-1.624-0.939-2.64-2.52-2.92-4.243-1.584-0.427-3.237-0.667-4.96-0.667-2.96 0-5.747 0.693-8.224 1.92l2.968 5.32c1.6-0.744 3.381-1.16 5.256-1.16zM40.744 16.851c2.040 1.179 4.656 0.483 5.837-1.56 1.176-2.040 0.483-4.656-1.568-5.84-2.040-1.173-4.656-0.477-5.837 1.571-1.176 2.037-0.48 4.651 1.568 5.829z"></path>
</svg>
