<svg width="600" height="340" viewBox="0 0 600 340" fill="none" xmlns="http://www.w3.org/2000/svg">
<rect width="600" height="340" fill="white"/>
<rect width="600" height="340" fill="#353431"/>
<g clip-path="url(#clip0)">
<path d="M176.311 227.917C150.354 227.917 129.242 207.416 129.242 182.215C129.242 157.015 150.357 136.513 176.311 136.513H176.322C180.694 129.182 186.895 123.113 194.317 118.904C201.738 114.695 210.125 112.49 218.656 112.504C242.26 112.504 262.718 129.582 267.126 152.576C278.427 160.281 285.112 172.865 285.112 186.661C285.112 209.411 266.624 227.917 243.898 227.917C243.898 227.917 212.412 231.097 212.95 197.726H208.181C208.181 197.726 211.537 228.247 176.924 227.999L176.311 227.917Z" fill="#F3F2F2"/>
<path d="M219.368 191.153C218.577 192.545 216.77 195.234 216.681 195.324C216.465 195.54 216.208 195.711 215.926 195.828C215.644 195.945 215.342 196.005 215.036 196.004L206.113 196.011C205.741 196.008 205.374 195.916 205.044 195.744C204.714 195.572 204.429 195.324 204.213 195.02C203.392 193.85 202.578 192.545 201.781 191.156C199.151 191.829 191.483 192.516 191.483 192.516C191.483 192.516 192.256 180.818 196.109 176.457C195.231 172.184 195.019 167.775 195.902 163.588C197.579 155.659 203.025 149.698 208.935 143.779C209.371 143.343 209.962 143.098 210.579 143.098C211.195 143.098 211.786 143.343 212.223 143.779C217.894 149.455 223.576 155.671 225.244 163.602C226.133 167.779 225.924 172.188 225.044 176.471C228.899 180.83 229.673 192.525 229.673 192.525C229.673 192.525 221.998 191.829 219.368 191.153Z" fill="#353431"/>
<path d="M214.715 166.349C214.715 165.549 214.478 164.766 214.033 164.1C213.589 163.435 212.957 162.916 212.218 162.609C211.48 162.303 210.667 162.223 209.882 162.379C209.098 162.535 208.378 162.921 207.812 163.487C207.247 164.053 206.861 164.774 206.705 165.559C206.549 166.344 206.63 167.158 206.936 167.898C207.242 168.637 207.76 169.27 208.425 169.714C209.09 170.159 209.872 170.396 210.671 170.396C211.744 170.396 212.772 169.97 213.53 169.211C214.289 168.452 214.715 167.422 214.715 166.349Z" fill="#F3F2F2"/>
<path d="M341.147 197.968C341.008 198.176 340.805 198.457 340.536 198.81C340.267 199.164 339.63 199.793 338.625 200.697C337.625 201.597 336.542 202.399 335.389 203.094C334.235 203.791 332.714 204.411 330.828 204.955C328.932 205.501 326.968 205.776 324.995 205.772C319.153 205.772 314.304 203.74 310.449 199.677C306.594 195.613 304.667 190.335 304.667 183.843V154.62H311.953V183.843C311.953 188.229 313.311 191.849 316.028 194.704C318.745 197.56 322.074 198.988 326.014 198.989C330.26 198.989 333.843 197.425 336.763 194.297C339.683 191.169 341.144 187.174 341.145 182.312V154.62H348.484V204.748H341.148L341.147 197.968Z" fill="#F3F2F2"/>
<path d="M372.987 226.68H365.703V154.621H372.987V162.474C373.125 162.27 373.372 161.956 373.727 161.53C374.081 161.105 374.812 160.382 375.917 159.363C377.025 158.341 378.226 157.427 379.508 156.635C380.798 155.836 382.454 155.122 384.476 154.493C386.497 153.864 388.601 153.546 390.716 153.55C397.102 153.55 402.698 156.116 407.503 161.25C412.309 166.384 414.713 172.529 414.713 179.686C414.713 186.843 412.32 192.98 407.53 198.096C402.741 203.213 397.135 205.773 390.716 205.776C388.619 205.782 386.533 205.473 384.527 204.858C382.541 204.245 380.868 203.514 379.508 202.665C378.264 201.898 377.081 201.037 375.969 200.09C374.966 199.222 374.21 198.483 373.7 197.871L372.987 196.902V226.68ZM378.465 193.2C382.116 197.058 386.201 198.988 390.716 198.988C395.031 198.988 398.894 197.109 402.308 193.352C405.72 189.595 407.428 185.04 407.428 179.685C407.428 174.33 405.72 169.774 402.308 166.017C398.894 162.26 395.031 160.382 390.716 160.384C386.199 160.384 382.116 162.313 378.465 166.172C374.814 170.03 372.989 174.535 372.987 179.686C372.987 184.837 374.814 189.342 378.465 193.201V193.2Z" fill="#F3F2F2"/>
<path d="M449.663 161.401H437.636V204.752H430.35V161.401H422.51V154.621H430.355V145.236C430.355 140.579 431.552 136.975 433.945 134.424C436.341 131.874 439.66 130.599 443.906 130.6C445.158 130.599 446.404 130.736 447.625 131.008C448.847 131.28 449.765 131.552 450.376 131.824L451.192 132.181V138.964C449.119 137.91 446.859 137.383 444.416 137.383C439.898 137.383 437.641 140.001 437.641 145.236V154.621H449.667L449.663 161.401Z" fill="#DD6B20"/>
<path d="M461.406 134.552C462.304 133.653 463.416 133.203 464.742 133.203C466.068 133.203 467.181 133.653 468.079 134.552C468.977 135.452 469.427 136.565 469.427 137.893C469.427 139.221 468.977 140.334 468.079 141.234C467.181 142.133 466.068 142.583 464.742 142.583C463.416 142.583 462.304 142.133 461.406 141.234C460.505 140.334 460.057 139.221 460.057 137.893C460.057 136.565 460.505 135.452 461.406 134.552ZM461.125 154.621H468.411V204.748H461.125V154.621Z" fill="#DD6B20"/>
</g>
<defs>
<clipPath id="clip0">
<rect width="341" height="116" fill="white" transform="translate(129 112)"/>
</clipPath>
</defs>
</svg>
